<?xml version="1.0" encoding="UTF-8"?>
<svg xmlns="http://www.w3.org/2000/svg" width="100" height="100" viewBox="0 0 100 100" fill="none">
    <path fill-rule="evenodd" clip-rule="evenodd" d="M51.1049 0.00636203V50.106L50.8661 50.1096L50.4645 50.112C50.4245 50.1117 50.3865 50.1103 50.3611 50.1096C50.3323 50.1088 50.3159 50.1086 50.3017 50.1084L49.2275 50.0953L49.1075 49.0271C47.9652 38.88 39.5 30.9289 29.0971 30.6244L28.6004 30.6161C28.1476 30.6135 27.6949 30.6265 27.2446 30.6529L26.1716 30.7159L25.9755 29.6607C25.7255 28.3151 25.5819 26.9308 25.556 25.5196L25.5525 24.9124C25.6324 11.0752 36.9147 -0.0789239 50.752 0.000420698C50.8696 0.0011041 50.9877 0.00407057 51.1049 0.00636203ZM30.6715 19.2159C30.101 19.2126 29.5355 19.2371 28.9782 19.2872L28.8535 19.2919C28.8117 19.2914 28.7695 19.2883 28.7287 19.2836C28.2547 21.0855 27.9973 22.9774 27.986 24.9267L27.9908 25.4745C28.0076 26.3922 28.0791 27.298 28.2023 28.1861C28.339 28.1843 28.4771 28.1817 28.6146 28.1825L29.1695 28.1908C37.9914 28.4491 45.5599 33.6312 49.256 41.0693V38.1093C48.7208 27.5616 40.5622 19.2732 30.6715 19.2159ZM35.3628 8.34442C32.8231 10.6625 30.8129 13.5527 29.5367 16.812C29.9171 16.7925 30.3008 16.7801 30.6858 16.7823C38.7573 16.8291 45.6921 21.6415 49.2239 28.6412C49.2229 28.3212 49.2249 27.9748 49.2227 27.5943C49.1713 18.7182 43.7323 11.2761 36.3182 8.67833L35.5945 8.44067L35.4757 8.39908C35.437 8.3829 35.399 8.36415 35.3628 8.34442ZM49.256 2.47439C44.9301 2.72921 40.9276 4.20103 37.5896 6.55371C42.6485 8.4662 46.8052 12.3522 49.256 17.3253V2.47439Z" fill="#EFD89B"/>
    <path fill-rule="evenodd" clip-rule="evenodd" d="M49.2782 0.00636221V50.106L49.517 50.1096L49.9198 50.112C49.96 50.1117 49.9975 50.1103 50.0232 50.1096L50.0838 50.1084L51.158 50.0953L51.278 49.0271C52.4383 38.7187 61.1557 30.6772 71.7851 30.6161C72.2377 30.6135 72.6894 30.6265 73.1397 30.6529L74.2127 30.7159L74.4088 29.6607C74.6945 28.1228 74.8411 26.5343 74.8318 24.9124C74.752 11.0751 63.4697 -0.0789403 49.6323 0.000420878C49.514 0.0010999 49.396 0.00405276 49.2782 0.00636221ZM69.7128 19.2159C70.2835 19.2126 70.8486 19.2371 71.406 19.2872L71.5308 19.2919C71.5729 19.2914 71.6145 19.2883 71.6556 19.2836C72.1295 21.0855 72.387 22.9775 72.3982 24.9267C72.4045 26.0326 72.3296 27.1219 72.182 28.1861C72.0456 28.1843 71.9081 28.1817 71.7708 28.1825C62.7139 28.2347 54.9036 33.4721 51.1295 41.0633V38.0784C51.6788 27.545 59.8313 19.2728 69.7128 19.2159ZM65.0215 8.34442C67.5611 10.6625 69.5714 13.5527 70.8476 16.812C70.4669 16.7924 70.0838 16.7801 69.6985 16.7823C61.6264 16.8288 54.691 21.641 51.1592 28.6412C51.1602 28.3213 51.1582 27.9746 51.1604 27.5943C51.2117 18.7178 56.6515 11.2759 64.0661 8.67833L64.7898 8.44067L64.9074 8.39908C64.9464 8.38281 64.9851 8.36427 65.0215 8.34442ZM51.1295 2.47439C55.4551 2.7294 59.4569 4.20107 62.7947 6.55371C57.7367 8.46565 53.5806 12.3501 51.1295 17.3218V2.47439Z" fill="#EFD89B"/>
    <path fill-rule="evenodd" clip-rule="evenodd" d="M51.1049 99.9936V49.894L50.8661 49.8904L50.4645 49.888C50.4245 49.8883 50.3865 49.8897 50.3611 49.8904C50.3323 49.8912 50.3159 49.8914 50.3017 49.8916L49.2275 49.9047L49.1075 50.9729C47.9652 61.12 39.5 69.0711 29.0971 69.3756L28.6004 69.3839C28.1476 69.3865 27.6949 69.3735 27.2446 69.3471L26.1716 69.2841L25.9755 70.3393C25.7255 71.6849 25.5819 73.0692 25.556 74.4804L25.5525 75.0876C25.6324 88.9248 36.9147 100.079 50.752 99.9996C50.8696 99.9989 50.9877 99.9959 51.1049 99.9936ZM30.6715 80.7841C30.101 80.7874 29.5355 80.7629 28.9782 80.7128L28.8535 80.7081C28.8117 80.7086 28.7695 80.7117 28.7287 80.7164C28.2547 78.9145 27.9973 77.0226 27.986 75.0733L27.9908 74.5255C28.0076 73.6078 28.0791 72.702 28.2023 71.8139C28.339 71.8157 28.4771 71.8183 28.6146 71.8175L29.1695 71.8092C37.9914 71.5509 45.5599 66.3688 49.256 58.9307V61.8907C48.7208 72.4384 40.5622 80.7268 30.6715 80.7841ZM35.3628 91.6556C32.8231 89.3375 30.8129 86.4473 29.5367 83.188C29.9171 83.2075 30.3008 83.2199 30.6858 83.2177C38.7573 83.1709 45.6921 78.3585 49.2239 71.3588C49.2229 71.6788 49.2249 72.0252 49.2227 72.4057C49.1713 81.2818 43.7323 88.7239 36.3182 91.3217L35.5945 91.5593L35.4757 91.6009C35.437 91.6171 35.399 91.6359 35.3628 91.6556ZM49.256 97.5256C44.9301 97.2708 40.9276 95.799 37.5896 93.4463C42.6485 91.5338 46.8052 87.6478 49.256 82.6747V97.5256Z" fill="#EFD89B"/>
    <path fill-rule="evenodd" clip-rule="evenodd" d="M49.2782 99.9936V49.894L49.517 49.8904L49.9198 49.888C49.96 49.8883 49.9975 49.8897 50.0232 49.8904L50.0838 49.8916L51.158 49.9047L51.278 50.9729C52.4383 61.2813 61.1557 69.3228 71.7851 69.3839C72.2377 69.3865 72.6894 69.3735 73.1397 69.3471L74.2127 69.2841L74.4088 70.3393C74.6945 71.8772 74.8411 73.4657 74.8318 75.0876C74.752 88.9249 63.4697 100.079 49.6323 99.9996C49.514 99.9989 49.396 99.9959 49.2782 99.9936ZM69.7128 80.7841C70.2835 80.7874 70.8486 80.763 71.406 80.7128L71.5308 80.7081C71.5729 80.7086 71.6145 80.7117 71.6556 80.7164C72.1295 78.9145 72.387 77.0225 72.3982 75.0733C72.4045 73.9674 72.3296 72.8781 72.182 71.8139C72.0456 71.8157 71.9081 71.8183 71.7708 71.8175C62.7139 71.7653 54.9036 66.5279 51.1295 58.9367V61.9216C51.6788 72.455 59.8313 80.7272 69.7128 80.7841ZM65.0215 91.6556C67.5611 89.3375 69.5714 86.4473 70.8476 83.188C70.4669 83.2076 70.0838 83.2199 69.6985 83.2177C61.6264 83.1712 54.691 78.359 51.1592 71.3588C51.1602 71.6787 51.1582 72.0254 51.1604 72.4057C51.2117 81.2822 56.6515 88.7241 64.0661 91.3217L64.7898 91.5593L64.9074 91.6009C64.9464 91.6172 64.9851 91.6357 65.0215 91.6556ZM51.1295 97.5256C55.4551 97.2706 59.4569 95.7989 62.7947 93.4463C57.7367 91.5343 53.5806 87.6499 51.1295 82.6782V97.5256Z" fill="#EFD89B"/>
    <path fill-rule="evenodd" clip-rule="evenodd" d="M0.00636203 49.2798H50.106L50.1096 49.5186L50.112 49.9202C50.1117 49.9602 50.1103 49.9982 50.1096 50.0236C50.1088 50.0524 50.1086 50.0688 50.1084 50.083L50.0953 51.1572L49.0271 51.2772C38.88 52.4195 30.9289 60.8847 30.6244 71.2876L30.6161 71.7843C30.6135 72.2371 30.6265 72.6897 30.6529 73.1401L30.7159 74.2131L29.6607 74.4092C28.3151 74.6592 26.9308 74.8028 25.5196 74.8287L24.9124 74.8322C11.0752 74.7523 -0.0789239 63.47 0.000420698 49.6327C0.0011041 49.5151 0.00407057 49.397 0.00636203 49.2798ZM19.2159 69.7132C19.2126 70.2837 19.2371 70.8492 19.2872 71.4065L19.2919 71.5312C19.2914 71.573 19.2883 71.6152 19.2836 71.656C21.0855 72.13 22.9774 72.3874 24.9267 72.3987L25.4745 72.3939C26.3922 72.3771 27.298 72.3056 28.1861 72.1824C28.1843 72.0457 28.1817 71.9076 28.1825 71.7701L28.1908 71.2151C28.4491 62.3933 33.6312 54.8248 41.0693 51.1287H38.1093C27.5616 51.6639 19.2732 59.8225 19.2159 69.7132ZM8.34442 65.0219C10.6625 67.5616 13.5527 69.5718 16.812 70.848C16.7925 70.4676 16.7801 70.0839 16.7823 69.6989C16.8291 61.6274 21.6415 54.6926 28.6412 51.1608C28.3212 51.1618 27.9748 51.1598 27.5943 51.162C18.7182 51.2134 11.2761 56.6524 8.67833 64.0665L8.44067 64.7902L8.39908 64.909C8.3829 64.9477 8.36415 64.9857 8.34442 65.0219ZM2.47439 51.1287C2.72921 55.4546 4.20103 59.4571 6.55371 62.7951C8.4662 57.7362 12.3522 53.5795 17.3253 51.1287H2.47439Z" fill="#EFD89B"/>
    <path fill-rule="evenodd" clip-rule="evenodd" d="M0.00636221 51.1065H50.106L50.1096 50.8677L50.112 50.4649C50.1117 50.4247 50.1103 50.3872 50.1096 50.3615L50.1084 50.3009L50.0953 49.2267L49.0271 49.1067C38.7187 47.9464 30.6772 39.229 30.6161 28.5996C30.6135 28.147 30.6265 27.6953 30.6529 27.245L30.7159 26.172L29.6607 25.9759C28.1228 25.6902 26.5343 25.5436 24.9124 25.5529C11.0751 25.6327 -0.0789403 36.915 0.000420878 50.7524C0.0010999 50.8707 0.00405276 50.9887 0.00636221 51.1065ZM19.2159 30.6719C19.2126 30.1012 19.2371 29.5361 19.2872 28.9787L19.2919 28.8539C19.2914 28.8118 19.2883 28.7702 19.2836 28.7291C21.0855 28.2552 22.9775 27.9977 24.9267 27.9865C26.0326 27.9802 27.1219 28.0551 28.1861 28.2027C28.1843 28.3391 28.1817 28.4765 28.1825 28.6139C28.2347 37.6708 33.4721 45.4811 41.0633 49.2552H38.0784C27.545 48.7059 19.2728 40.5534 19.2159 30.6719ZM8.34442 35.3632C10.6625 32.8236 13.5527 30.8133 16.812 29.5371C16.7924 29.9178 16.7801 30.3009 16.7823 30.6862C16.8288 38.7583 21.641 45.6937 28.6412 49.2255C28.3213 49.2245 27.9746 49.2265 27.5943 49.2243C18.7178 49.173 11.2759 43.7332 8.67833 36.3186L8.44067 35.5949L8.39908 35.4773C8.38281 35.4383 8.36427 35.3996 8.34442 35.3632ZM2.47439 49.2552C2.7294 44.9296 4.20107 40.9278 6.55371 37.59C8.46565 42.648 12.3501 46.8041 17.3218 49.2552H2.47439Z" fill="#EFD89B"/>
    <path fill-rule="evenodd" clip-rule="evenodd" d="M99.9936 49.2798H49.894L49.8904 49.5186L49.888 49.9202C49.8883 49.9602 49.8897 49.9982 49.8904 50.0236C49.8912 50.0524 49.8914 50.0688 49.8916 50.083L49.9047 51.1572L50.9729 51.2772C61.12 52.4195 69.0711 60.8847 69.3756 71.2876L69.3839 71.7843C69.3865 72.2371 69.3735 72.6897 69.3471 73.1401L69.2841 74.2131L70.3393 74.4092C71.6849 74.6592 73.0692 74.8028 74.4804 74.8287L75.0876 74.8322C88.9248 74.7523 100.079 63.47 99.9996 49.6327C99.9989 49.5151 99.9959 49.397 99.9936 49.2798ZM80.7841 69.7132C80.7874 70.2837 80.7629 70.8492 80.7128 71.4065L80.7081 71.5312C80.7086 71.573 80.7117 71.6152 80.7164 71.656C78.9145 72.13 77.0226 72.3874 75.0733 72.3987L74.5255 72.3939C73.6078 72.3771 72.702 72.3056 71.8139 72.1824C71.8157 72.0457 71.8183 71.9076 71.8175 71.7701L71.8092 71.2151C71.5509 62.3933 66.3688 54.8248 58.9307 51.1287H61.8907C72.4384 51.6639 80.7268 59.8225 80.7841 69.7132ZM91.6556 65.0219C89.3375 67.5616 86.4473 69.5718 83.188 70.848C83.2075 70.4676 83.2199 70.0839 83.2177 69.6989C83.1709 61.6274 78.3585 54.6926 71.3588 51.1608C71.6788 51.1618 72.0252 51.1598 72.4057 51.162C81.2818 51.2134 88.7239 56.6524 91.3217 64.0665L91.5593 64.7902L91.6009 64.909C91.6171 64.9477 91.6359 64.9857 91.6556 65.0219ZM97.5256 51.1287C97.2708 55.4546 95.799 59.4571 93.4463 62.7951C91.5338 57.7362 87.6478 53.5795 82.6747 51.1287H97.5256Z" fill="#EFD89B"/>
    <path fill-rule="evenodd" clip-rule="evenodd" d="M99.9936 51.1065H49.894L49.8904 50.8677L49.888 50.4649C49.8883 50.4247 49.8897 50.3872 49.8904 50.3615L49.8916 50.3009L49.9047 49.2267L50.9729 49.1067C61.2813 47.9464 69.3228 39.229 69.3839 28.5996C69.3865 28.147 69.3735 27.6953 69.3471 27.245L69.2841 26.172L70.3393 25.9759C71.8772 25.6902 73.4657 25.5436 75.0876 25.5529C88.9249 25.6327 100.079 36.915 99.9996 50.7524C99.9989 50.8707 99.9959 50.9887 99.9936 51.1065ZM80.7841 30.6719C80.7874 30.1012 80.763 29.5361 80.7128 28.9787L80.7081 28.8539C80.7086 28.8118 80.7117 28.7702 80.7164 28.7291C78.9145 28.2552 77.0225 27.9977 75.0733 27.9865C73.9674 27.9802 72.8781 28.0551 71.8139 28.2027C71.8157 28.3391 71.8183 28.4765 71.8175 28.6139C71.7653 37.6708 66.5279 45.4811 58.9367 49.2552H61.9216C72.455 48.7059 80.7272 40.5534 80.7841 30.6719ZM91.6556 35.3632C89.3375 32.8236 86.4473 30.8133 83.188 29.5371C83.2076 29.9178 83.2199 30.3009 83.2177 30.6862C83.1712 38.7583 78.359 45.6937 71.3588 49.2255C71.6787 49.2245 72.0254 49.2265 72.4057 49.2243C81.2822 49.173 88.7241 43.7332 91.3217 36.3186L91.5593 35.5949L91.6009 35.4773C91.6172 35.4383 91.6357 35.3996 91.6556 35.3632ZM97.5256 49.2552C97.2706 44.9296 95.7989 40.9278 93.4463 37.59C91.5343 42.648 87.6499 46.8041 82.6782 49.2552H97.5256Z" fill="#EFD89B"/>
</svg> 