<svg xmlns="http://www.w3.org/2000/svg" version="1.1" xmlns:xlink="http://www.w3.org/1999/xlink" width="512" height="512"><svg width="512" height="512" viewBox="0 0 512 512" fill="none" classname="skull-hotel-logo" version="1.1" id="SvgjsSvg1009" sodipodi:docname="logo.svg" inkscape:version="1.4 (86a8ad7, 2024-10-11)" xmlns:inkscape="http://www.inkscape.org/namespaces/inkscape" xmlns:sodipodi="http://sodipodi.sourceforge.net/DTD/sodipodi-0.dtd" xmlns="http://www.w3.org/2000/svg" xmlns:svg="http://www.w3.org/2000/svg">
  <defs id="SvgjsDefs1008"></defs>
  <sodipodi:namedview id="SvgjsSodipodi:namedview1007" pagecolor="#ffffff" bordercolor="#000000" borderopacity="0.25" inkscape:showpageshadow="2" inkscape:pageopacity="0.0" inkscape:pagecheckerboard="0" inkscape:deskcolor="#d1d1d1" inkscape:zoom="1.2554348" inkscape:cx="230.99567" inkscape:cy="280.77922" inkscape:window-width="2560" inkscape:window-height="1351" inkscape:window-x="2551" inkscape:window-y="-9" inkscape:window-maximized="1" inkscape:current-layer="svg1"></sodipodi:namedview>
  <circle style="fill: rgb(0, 0, 0); stroke: none; stroke-width: 2.7; stroke-linecap: square; paint-order: stroke markers; fill-opacity: 1; --darkreader-inline-fill: var(--darkreader-text-000000, #e8e6e3); --darkreader-inline-stroke: none;" id="SvgjsCircle1006" cx="254.89177" cy="256.48486" r="254.89177" data-darkreader-inline-fill="" data-darkreader-inline-stroke=""></circle>
  <path d="m 256.54226,165.75271 v 1.6e-4 c -23.97246,-0.5386 -47.6396,8.38287 -51.44119,27.05076 -2.47995,12.18366 2.10388,17.86254 7.41403,24.44094 3.51795,4.35852 7.35491,9.11189 9.66738,16.41342 -3.88891,-4.09256 -5.96714,-6.51275 -7.30918,-8.0758 l -1.6e-4,-1.6e-4 c -1.10779,-1.29009 -1.71411,-1.99617 -2.42322,-2.57651 -0.85729,-0.70178 -1.86486,-1.21966 -4.09048,-2.36395 -0.87578,-0.45032 -1.94024,-0.99752 -3.25837,-1.69117 -1.17026,9.85605 -5.9528,16.84096 -10.56898,23.58333 -4.90301,7.15955 -9.61814,14.04661 -9.61814,23.80833 1.35207,0 2.29191,-1.20468 3.24402,-2.42529 0.87069,-1.11545 1.75157,-2.24523 2.9674,-2.47788 4.61188,-0.88279 9.66802,-0.30914 13.9757,1.63492 7.13549,3.21726 7.60206,6.56358 8.17078,10.64292 0.42434,3.04197 0.90542,6.49187 4.25206,10.59989 3.92493,4.81871 7.48032,7.88299 10.57599,10.55049 6.68198,5.75888 11.22263,9.67089 12.71685,25.40182 0.50418,5.29995 0.57589,10.63654 0.64775,15.97155 0.0825,6.13653 0.16509,12.26987 0.9051,18.34584 0.0835,0.6852 0.16573,1.6652 0.26643,2.8635 0.76137,9.06696 2.57301,30.64121 13.90623,31.2085 11.3329,-0.56729 13.14469,-22.14154 13.90638,-31.21009 0.10039,-1.19671 0.18325,-2.17671 0.26612,-2.86191 0.73937,-6.07597 0.82224,-12.20931 0.9051,-18.34584 v 0 c 0.0717,-5.33501 0.14341,-10.6716 0.64855,-15.97155 1.4931,-15.73093 6.03454,-19.64294 12.71604,-25.40182 3.09615,-2.6675 6.65123,-5.73178 10.57599,-10.55049 3.34633,-4.10802 3.82757,-7.55792 4.25143,-10.59989 0.56888,-4.07934 1.03577,-7.42566 8.17142,-10.64451 4.3072,-1.94247 9.36334,-2.51612 13.9765,-1.63333 1.21583,0.23265 2.09543,1.36084 2.96707,2.47788 0.95132,1.22061 1.89148,2.42529 3.24435,2.42529 0,-9.76172 -4.71514,-16.64878 -9.6183,-23.80833 -4.61634,-6.74253 -9.4,-13.72743 -10.56962,-23.58333 -1.31782,0.69301 -2.38067,1.24006 -3.25709,1.69006 v 3.2e-4 l -0.002,6.3e-4 c -2.22451,1.14429 -3.23319,1.66233 -4.09048,2.36395 -0.70911,0.58034 -1.31463,1.28642 -2.42211,2.57635 v 3.2e-4 c -1.34331,1.56289 -3.42122,3.98324 -7.30934,8.0758 2.31216,-7.30152 6.14928,-12.0549 9.66611,-16.41326 5.3111,-6.57856 9.89398,-12.25744 7.41451,-24.44094 -3.80207,-18.66805 -27.46857,-27.58936 -51.44103,-27.05092 z m 5.4185,258.57428 c -0.6648,-7.52446 -1.34347,-15.20827 -5.4185,-20.72812 -4.07519,5.51985 -4.7537,13.20366 -5.4185,20.72812 -0.26261,2.97345 -0.52299,5.9214 -0.98972,8.70204 -10.92799,-3.83234 -10.86824,-15.31343 -10.80752,-27.01283 v 0 c 0.0126,-2.4476 0.0253,-4.90636 -0.0625,-7.30456 -0.34658,-9.49082 -0.1713,-18.99121 0.004,-28.49319 0.17655,-9.57049 0.35311,-19.14259 -0.004,-28.70352 l -10e-4,-0.0319 c -0.32444,-8.7148 -1.40785,-37.81192 -15.52728,-42.45534 -3.88143,-1.27639 -8.00538,-1.12182 -12.13586,-0.96885 -3.77354,0.14182 -7.5525,0.28205 -11.15698,-0.66608 0,-3.92157 -5.25835,-14.58521 -8.49744,-21.15357 -1.16484,-2.36155 -2.06867,-4.19406 -2.37255,-4.9924 -8.46318,17.81362 3.2904,29.16404 15.00988,40.4826 6.52422,6.30066 13.03793,12.59175 16.04723,19.98077 -0.59692,-0.62784 -1.09409,-1.15369 -1.51604,-1.59987 l -0.014,-0.0143 -0.0112,-0.0111 c -1.34108,-1.41821 -1.91681,-2.02533 -2.52839,-2.5958 -0.46004,-0.42865 -0.94032,-0.83499 -1.78168,-1.54728 h -6.4e-4 l -7.9e-4,-0.002 c -1.17584,-0.99593 -3.05632,-2.58783 -6.57012,-5.66964 -5.5608,23.41474 2.66925,40.28023 15.52856,57.19672 l 3.10571,-17.97616 c 2.32649,12.2396 2.38131,24.78992 2.43612,37.34343 0.0531,12.15673 0.10629,24.31506 2.22244,36.19452 3.84557,21.57585 18.74566,13.92391 25.04249,4.06978 6.29683,9.85254 21.1966,17.50607 25.04169,-4.06978 2.11775,-11.87946 2.17033,-24.03779 2.22292,-36.19452 0.0558,-12.55351 0.10995,-25.10383 2.43644,-37.34343 l 3.10571,17.97616 c 12.85946,-16.91649 21.08984,-33.78198 15.52856,-57.19672 -3.51524,3.08341 -5.39556,4.6753 -6.57155,5.67123 -0.84137,0.71229 -1.32101,1.11863 -1.78152,1.54728 -0.6119,0.57047 -1.18715,1.17759 -2.52887,2.5958 l -0.006,0.006 c -0.42546,0.44936 -0.929,0.98159 -1.53453,1.61899 3.00851,-7.38902 9.5227,-13.68011 16.04644,-19.98077 11.72012,-11.31856 23.4737,-22.66898 15.01067,-40.4842 -0.30435,0.79994 -1.20786,2.63245 -2.3727,4.994 v 0 c -3.23957,6.56836 -8.49649,17.232 -8.49649,21.15357 -3.60447,0.94813 -7.38423,0.8079 -11.15761,0.66608 -4.13033,-0.15297 -8.25428,-0.30754 -12.13602,0.96885 -14.11991,4.64183 -15.20348,33.74054 -15.52696,42.45534 l -0.002,0.0319 c -0.35695,9.56093 -0.18007,19.13303 -0.003,28.70352 0.17369,9.50198 0.34897,19.00237 0.003,28.49319 -0.0876,2.3998 -0.0749,4.85696 -0.0621,7.30456 0.0605,11.6994 0.11951,23.18049 -10.80784,27.01283 -0.46674,-2.78064 -0.72711,-5.72859 -0.98972,-8.70204 z M 393.38955,83.315442 c -0.16732,1.86351 -0.33145,4.34546 -0.52267,7.23667 -0.86367,13.104538 -2.28028,34.616808 -7.24081,45.056878 -0.86367,1.81912 -3.36545,4.62159 -6.19549,7.79344 -4.94141,5.53578 -10.88672,12.19672 -10.88672,16.71905 -5.74931,2.01751 -11.22454,4.22259 -16.63284,6.4012 -11.65638,4.69522 -23.00681,9.26758 -36.16425,11.57479 0,3.93815 -0.0494,6.72867 -0.0861,8.81949 v 0.001 c -0.0574,3.19239 -0.0861,4.75322 0.13864,6.27723 0.21352,1.45788 0.65811,2.88198 1.52815,5.66852 v 3.2e-4 c 0.70751,2.27088 1.70026,5.44655 3.07862,10.28247 48.9281,0 77.63481,-42.37567 80.74849,-91.51363 0,30.47581 -4.32313,54.79708 -26.39934,76.8062 -2.92246,2.91321 -10.7688,7.0778 -19.20951,11.55662 -12.98694,6.89216 -27.37616,14.52816 -27.37616,19.49252 67.10982,-10.08934 93.78165,-82.05993 65.21994,-142.172888 z m -273.69536,10e-5 c 0.16869,1.8635 0.33224,4.34546 0.52277,7.23667 0.86361,13.104598 2.28128,34.616868 7.24149,45.056778 0.86431,1.81912 3.36545,4.62159 6.19628,7.79359 4.94046,5.53579 10.88513,12.19673 10.88513,16.71906 5.75075,2.01735 11.22502,4.22258 16.63364,6.4012 h 1.6e-4 v 0 c 11.65574,4.69506 23.00696,9.26742 36.16345,11.57463 0,3.93847 0.0499,6.72915 0.0875,8.81997 v 4.8e-4 3.2e-4 c 0.0571,3.19239 0.0851,4.75322 -0.13879,6.27707 -0.21401,1.45788 -0.65843,2.88198 -1.52816,5.66852 v 1.6e-4 c -0.70894,2.27088 -1.70009,5.44655 -3.0791,10.28279 -48.92746,0 -77.63516,-42.37567 -80.74865,-91.51363 0,30.47565 4.32317,54.79708 26.39855,76.80604 2.92246,2.91321 10.77008,7.07796 19.20968,11.55678 12.98725,6.89216 27.37615,14.52816 27.37615,19.49252 C 117.80438,215.39915 91.134048,143.42856 119.69421,83.315542 Z" fill="#efd89b" id="SvgjsPath1005" style="stroke-width: 1.59349; --darkreader-inline-fill: var(--darkreader-background-efd89b, #4e3c0c);" data-darkreader-inline-fill=""></path>
</svg><style>@media (prefers-color-scheme: light) { :root { filter: none; } }
@media (prefers-color-scheme: dark) { :root { filter: none; } }
</style></svg>