<svg xmlns="http://www.w3.org/2000/svg" width="671" height="85" viewBox="0 0 671 85" fill="none">
<path d="M334.123 61.2592C334.98 60.6833 336.244 60.7247 337.043 61.3832L349.03 71.2621C349.882 71.9645 349.882 73.1036 349.03 73.806L337.043 83.6849C336.191 84.3871 334.808 84.3873 333.956 83.6849L321.969 73.806L321.82 73.6693C321.121 72.963 321.17 71.9208 321.969 71.2621L333.956 61.3832L334.123 61.2592ZM270.075 48.2758C270.539 48.2758 270.989 48.437 271.347 48.7318L307.165 78.2513L308.708 79.5228L306.164 82.6097L304.62 81.3373L269.357 52.2758H58.9473V48.2758H270.075ZM612.053 52.2758H401.643L366.38 81.3373L364.836 82.6097L362.292 79.5228L363.835 78.2513L399.653 48.7318C400.011 48.4369 400.461 48.2758 400.925 48.2758H612.053V52.2758ZM326.6 72.5345L335.5 79.8695L344.399 72.5345L335.5 65.1986L326.6 72.5345ZM397.272 39.7054H649.886L659.013 32.184L671 42.0629L659.013 51.9418L649.019 43.7054H397.14L360.417 73.9691L336.153 53.972L311.891 73.9691L275.168 43.7054H21.9814L11.9873 51.9418L0 42.0629L11.9873 32.184L21.1143 39.7054H275.035L311.891 9.33142L336.154 29.3275L360.417 9.33142L397.272 39.7054ZM278.849 41.6508L311.891 68.8812L333.066 51.4291L324.51 44.3773L313.861 53.1537C313.05 53.8222 311.733 53.8223 310.922 53.1537L298.935 43.2748L298.793 43.1449C298.127 42.4723 298.174 41.4792 298.935 40.8519L310.922 30.973L311.08 30.8549C311.896 30.3063 313.1 30.346 313.861 30.973L324.01 39.3363L333.066 31.8715L311.891 14.4193L278.849 41.6508ZM339.24 31.8705L348.726 39.6879L359.375 30.9125L359.542 30.7885C360.399 30.2126 361.663 30.254 362.462 30.9125L374.449 40.7914C375.301 41.4938 375.301 42.6329 374.449 43.3353L362.462 53.2142C361.61 53.9164 360.227 53.9166 359.375 53.2142L348.225 44.0248L339.24 51.4291L360.417 68.8812L393.459 41.6508L360.417 14.4193L339.24 31.8705ZM303.344 42.0638L312.392 49.5199L321.439 42.0638L312.392 34.6068L303.344 42.0638ZM352.019 42.0638L360.919 49.3988L369.818 42.0638L360.919 34.7279L352.019 42.0638ZM327.375 41.6508L336.153 48.8851L344.933 41.6508L336.153 34.4154L327.375 41.6508ZM308.708 3.88904L307.165 5.16052L271.347 34.6801C270.989 34.9748 270.539 35.1361 270.075 35.1361H58.9473V31.1361H269.357L304.62 2.07459L306.164 0.802125L308.708 3.88904ZM366.38 2.07459L401.643 31.1361H612.053V35.1361H400.925C400.461 35.1361 400.011 34.9748 399.653 34.6801L363.835 5.16052L362.292 3.88904L364.836 0.802125L366.38 2.07459ZM334.188 0.384156C335.005 -0.164373 336.209 -0.125622 336.97 0.501343L348.957 10.3802C349.769 11.0492 349.769 12.1352 348.957 12.8041L336.97 22.683C336.158 23.3514 334.842 23.3507 334.03 22.682L322.043 12.8031L321.9 12.6732C321.235 12.0006 321.283 11.0084 322.043 10.3812L334.03 0.50232L334.188 0.384156ZM326.452 11.5922L335.5 19.0492L344.548 11.5922L335.5 4.13513L326.452 11.5922Z" fill="#EFD89B"/>
</svg>