<svg width="24" height="24" viewBox="0 0 24 24" fill="none" xmlns="http://www.w3.org/2000/svg">
<g id="Group">
<path id="Subtract" fill-rule="evenodd" clip-rule="evenodd" d="M12 23.25C18.2132 23.25 23.25 18.2132 23.25 12C23.25 5.7868 18.2132 0.75 12 0.75C5.7868 0.75 0.75 5.7868 0.75 12C0.75 18.2132 5.7868 23.25 12 23.25ZM10.5938 12L7.78125 8.71875V8.25L8.83594 7.3125H9.375L12 10.3828L14.6484 7.3125H15.1641L16.2188 8.25V8.71875L13.4062 12L16.2188 15.2812V15.75L15.1641 16.6875H14.6484L12 13.6406L9.375 16.6875H8.83594L7.78125 15.75V15.2812L10.5938 12Z" fill="#A9B8C6"/>
</g>
</svg>
