<svg width="24" height="24" viewBox="0 0 24 24" fill="none" xmlns="http://www.w3.org/2000/svg">
<g id="Group">
<path id="Subtract" fill-rule="evenodd" clip-rule="evenodd" d="M12 23.25C18.2132 23.25 23.25 18.2132 23.25 12C23.25 5.7868 18.2132 0.75 12 0.75C5.7868 0.75 0.75 5.7868 0.75 12C0.75 18.2132 5.7868 23.25 12 23.25ZM14.0859 10.7812C14.2578 10.6094 14.3438 10.3906 14.3438 10.125C14.3438 9.875 14.2578 9.66406 14.0859 9.49219L14.0391 9.44531C13.8672 9.27344 13.6562 9.1875 13.4062 9.1875H10.5938V11.0625H13.4062C13.6562 11.0625 13.875 10.9688 14.0625 10.7812H14.0859ZM15.5156 12C15.9844 12.5312 16.2188 13.1562 16.2188 13.875C16.2188 14.6406 15.9453 15.2969 15.3984 15.8438L15.375 15.8672C14.8281 16.4141 14.1719 16.6875 13.4062 16.6875H8.71875V7.3125H13.4062C14.1719 7.3125 14.8281 7.58594 15.375 8.13281L15.3984 8.15625C15.9453 8.70312 16.2188 9.35938 16.2188 10.125C16.2188 10.8438 15.9844 11.4688 15.5156 12ZM14.0859 14.5078C14.2578 14.3359 14.3438 14.125 14.3438 13.875C14.3438 13.6094 14.2578 13.3906 14.0859 13.2187H14.0625C13.875 13.0312 13.6562 12.9375 13.4062 12.9375H10.5938V14.8125H13.4062C13.6562 14.8125 13.8672 14.7266 14.0391 14.5547L14.0859 14.5078Z" fill="#A9B8C6"/>
</g>
</svg>
