<svg width="28" height="28" viewBox="0 0 28 28" fill="none" xmlns="http://www.w3.org/2000/svg">
<g id="xbox_button_menu">
<g id="Group">
<path id="Vector" d="M9.30452 9.65239V11.3915H18.8697V9.65239H9.30452ZM24.5219 14.0002C24.5219 16.8988 23.5002 19.3553 21.4567 21.3698C19.4422 23.4133 16.9857 24.435 14.0871 24.435C11.2031 24.435 8.7393 23.4133 6.69582 21.3698C4.66684 19.3553 3.65234 16.8988 3.65234 14.0002C3.65234 11.1162 4.66684 8.65239 6.69582 6.60891C8.7393 4.57992 11.2031 3.56543 14.0871 3.56543C16.9857 3.56543 19.4422 4.57992 21.4567 6.60891C23.5002 8.65239 24.5219 11.1162 24.5219 14.0002ZM9.30452 16.6089V18.348H18.8697V16.6089H9.30452ZM9.30452 13.1306V14.8698H18.8697V13.1306H9.30452Z" fill="#A9B8C6"/>
</g>
</g>
</svg>
