<svg width="30" height="30" viewBox="0 0 30 30" fill="none" xmlns="http://www.w3.org/2000/svg">
<g id="keyboard_ctrl">
<g id="Group">
<path id="Vector" d="M17.8594 15.0469C18.1406 14.7812 18.2812 14.4531 18.2812 14.0625C18.2812 13.6719 18.1406 13.3359 17.8594 13.0547C17.5937 12.7891 17.2734 12.6562 16.8984 12.6562H15.9375C15.8125 12.6562 15.7031 12.7031 15.6094 12.7969C15.5156 12.8906 15.4688 13 15.4688 13.125V16.875C15.4688 17 15.5156 17.1094 15.6094 17.2031L15.9375 17.3438C16.0625 17.3438 16.1719 17.2969 16.2656 17.2031L16.4062 16.875V15.4688H16.5938L17.3906 17.0859C17.4531 17.1953 17.5469 17.2734 17.6719 17.3203L18.0234 17.2969L18.2578 17.0391L18.2344 16.6641L17.5547 15.3047L17.8594 15.0703V15.0469ZM16.9219 14.5312H16.4062V13.5938H16.8984C17.0234 13.5938 17.125 13.6328 17.2031 13.7109L17.3438 14.0625L17.2266 14.3906H17.2031L17.0859 14.4844L16.9219 14.5312ZM18.75 13.125V16.875C18.75 17 18.7969 17.1094 18.8906 17.2031L19.2188 17.3438H21.0938L21.4219 17.2031L21.5625 16.875L21.4219 16.5469C21.3281 16.4531 21.2188 16.4062 21.0938 16.4062H19.6875V13.125L19.5469 12.7969C19.4531 12.7031 19.3438 12.6562 19.2188 12.6562C19.0938 12.6562 18.9844 12.7031 18.8906 12.7969C18.7969 12.8906 18.75 13 18.75 13.125ZM26.25 10.3125V19.6875C26.25 21.2188 25.7812 22.2812 24.8438 22.875C24.25 23.25 23.4688 23.4375 22.5 23.4375H7.5C6.53125 23.4375 5.75 23.25 5.15625 22.875C4.21875 22.2812 3.75 21.2188 3.75 19.6875V10.3125C3.75 7.8125 5 6.5625 7.5 6.5625H22.5C25 6.5625 26.25 7.8125 26.25 10.3125ZM11.2969 16.9922C11.5781 16.7109 11.7188 16.3984 11.7188 16.0547L11.5781 15.7266C11.4844 15.6328 11.375 15.5859 11.25 15.5859C11.125 15.5859 11.0156 15.6328 10.9219 15.7266C10.8281 15.8203 10.7812 15.9297 10.7812 16.0547L10.6641 16.3125V16.2891L10.3125 16.4062L9.9375 16.2891L9.84375 16.0547V13.9687L9.96094 13.6875L9.9375 13.7344C10.0469 13.6406 10.1719 13.5938 10.3125 13.5938C10.4531 13.5938 10.5703 13.6406 10.6641 13.7344V13.7109L10.7812 13.9687C10.7812 14.0937 10.8281 14.2031 10.9219 14.2969C11.0156 14.3906 11.125 14.4375 11.25 14.4375L11.5781 14.2969L11.7188 13.9687C11.7188 13.6094 11.5781 13.2969 11.2969 13.0312L11.2734 13.0078C10.9922 12.7734 10.6719 12.6562 10.3125 12.6562C9.92188 12.6562 9.59375 12.7734 9.32812 13.0078L9.30469 13.0312C9.03906 13.2969 8.90625 13.6094 8.90625 13.9687V16.0547C8.90625 16.3984 9.03906 16.7031 9.30469 16.9688L9.32812 17.0156C9.59375 17.2344 9.92188 17.3438 10.3125 17.3438C10.6719 17.3438 10.9922 17.2344 11.2734 17.0156L11.2969 16.9922ZM12.6562 13.5938H13.125V16.875C13.125 17 13.1719 17.1094 13.2656 17.2031C13.3594 17.2969 13.4688 17.3438 13.5938 17.3438L13.9219 17.2031L14.0625 16.875V13.5938H14.5312L14.8594 13.4531L15 13.125L14.8594 12.7969C14.7656 12.7031 14.6562 12.6562 14.5312 12.6562H12.6562C12.5312 12.6562 12.4219 12.7031 12.3281 12.7969C12.2344 12.8906 12.1875 13 12.1875 13.125L12.3281 13.4531L12.6562 13.5938Z" fill="#A9B8C6"/>
</g>
</g>
</svg>
