<svg width="31" height="30" viewBox="0 0 31 30" fill="none" xmlns="http://www.w3.org/2000/svg">
<g id="keyboard_s">
<g id="Group">
<path id="Vector" d="M16.8606 14.0625H14.9856C14.7356 14.0625 14.5168 13.9688 14.3293 13.7812C14.1418 13.5938 14.0481 13.375 14.0481 13.125C14.0481 12.875 14.134 12.6641 14.3059 12.4922L14.3528 12.4453C14.5247 12.2734 14.7356 12.1875 14.9856 12.1875H16.884C17.1184 12.1875 17.3215 12.2734 17.4934 12.4453L17.5403 12.4922C17.7122 12.6641 17.7981 12.875 17.7981 13.125L19.6028 12.4219L19.5325 12.1875C19.3918 11.8125 19.1653 11.4687 18.8528 11.1562L18.8293 11.1328C18.2981 10.6016 17.6653 10.3281 16.9309 10.3125H14.9856C14.22 10.3125 13.5637 10.5859 13.0168 11.1328L12.9934 11.1562C12.4465 11.7031 12.1731 12.3594 12.1731 13.125C12.1731 13.9062 12.4465 14.5703 12.9934 15.1172C13.5403 15.6641 14.2043 15.9375 14.9856 15.9375H16.8606C17.1106 15.9375 17.3293 16.0312 17.5168 16.2187C17.7043 16.4062 17.7981 16.625 17.7981 16.875C17.7981 17.125 17.7122 17.3359 17.5403 17.5078L17.4934 17.5547C17.3215 17.7266 17.1106 17.8125 16.8606 17.8125H14.9622C14.7278 17.8125 14.5247 17.7266 14.3528 17.5547L14.3059 17.5078C14.134 17.3359 14.0481 17.125 14.0481 16.875L12.2668 17.6016L12.3372 17.8125C12.4622 18.1875 12.6809 18.5312 12.9934 18.8438L13.0168 18.8672C13.5481 19.3984 14.1809 19.6719 14.9153 19.6875H16.8606C17.6262 19.6875 18.2825 19.4141 18.8293 18.8672L18.8528 18.8438C19.3997 18.2969 19.6731 17.6406 19.6731 16.875C19.6731 16.0938 19.3997 15.4297 18.8528 14.8828C18.3059 14.3359 17.6418 14.0625 16.8606 14.0625ZM8.4231 3.75H23.4231C25.9231 3.75 27.1731 5 27.1731 7.5V22.5C27.1731 25 25.9231 26.25 23.4231 26.25H8.4231C5.9231 26.25 4.6731 25 4.6731 22.5V7.5C4.6731 5 5.9231 3.75 8.4231 3.75Z" fill="#A9B8C6"/>
</g>
</g>
</svg>
