<svg width="29" height="28" viewBox="0 0 29 28" fill="none" xmlns="http://www.w3.org/2000/svg">
<g id="keyboard_tab">
<g id="Group">
<path id="Vector" d="M24.6957 9.65209V18.3477C24.6957 19.768 24.261 20.7535 23.3914 21.3043C22.8407 21.6521 22.116 21.826 21.2175 21.826H7.30443C6.40588 21.826 5.68124 21.6521 5.13052 21.3043C4.26095 20.7535 3.82617 19.768 3.82617 18.3477V9.65209C3.82617 7.33325 4.98559 6.17383 7.30443 6.17383H21.2175C23.5363 6.17383 24.6957 7.33325 24.6957 9.65209ZM18.8262 13.0869L18.7392 13.1304H18.174V12.2608H18.6305C18.7465 12.2608 18.8407 12.297 18.9131 12.3695L19.0436 12.6956L18.9349 12.9782L18.9131 12.9999L18.8262 13.0869ZM20.3479 12.6956C20.3479 12.2173 20.174 11.8043 19.8262 11.4564C19.4928 11.1231 19.0943 10.9564 18.6305 10.9564H16.8697V16.6086H18.674C18.9204 16.6086 19.1668 16.5506 19.4131 16.4347L19.4783 16.3912L19.8262 16.0869V16.1086C20.174 15.7753 20.3479 15.3622 20.3479 14.8695C20.3479 14.4492 20.2247 14.0869 19.9783 13.7825C20.2247 13.4782 20.3479 13.1159 20.3479 12.6956ZM18.7392 14.4347C18.7972 14.4492 18.8552 14.4854 18.9131 14.5434L19.0436 14.8695L18.9349 15.1521L18.9131 15.1738L18.8262 15.2608L18.674 15.3043H18.174V14.4347H18.7392ZM7.73922 12.2608H9.04356V16.6086H10.3479V12.2608H11.6523V10.9564H7.73922V12.2608ZM13.8262 12.5869L13.9131 12.3912L13.9349 12.3695C14.0218 12.297 14.1305 12.2608 14.261 12.2608C14.3914 12.2608 14.5073 12.3043 14.6088 12.3912L14.6957 12.5869V13.5651H13.8262V12.5869ZM12.5218 12.5869V16.6086H13.8262V14.8695H14.6957V16.6086H16.0001V12.5869C16.0001 12.1231 15.8189 11.7318 15.4566 11.413C15.1088 11.1086 14.7102 10.9564 14.261 10.9564C13.7972 10.9564 13.3986 11.1086 13.0653 11.413H13.0436C12.6957 11.7318 12.5218 12.1231 12.5218 12.5869Z" fill="#A9B8C6"/>
</g>
</g>
</svg>
