<svg width="31" height="30" viewBox="0 0 31 30" fill="none" xmlns="http://www.w3.org/2000/svg">
<g id="keyboard_d">
<g id="Group">
<path id="Vector" d="M8.4231 3.75H23.4231C25.9231 3.75 27.1731 5 27.1731 7.5V22.5C27.1731 25 25.9231 26.25 23.4231 26.25H8.4231C5.9231 26.25 4.6731 25 4.6731 22.5V7.5C4.6731 5 5.9231 3.75 8.4231 3.75ZM14.0481 12.1875H15.0559C15.7903 12.2031 16.4309 12.4844 16.9778 13.0312C17.5247 13.5781 17.7981 14.2344 17.7981 15C17.7981 15.7656 17.5247 16.4297 16.9778 16.9922C16.4309 17.5234 15.7903 17.7969 15.0559 17.8125H14.0481V12.1875ZM12.1731 10.3125V19.6875H15.1028C16.3528 19.6562 17.4231 19.2031 18.3137 18.3281L18.759 17.8125C19.3684 17 19.6731 16.0625 19.6731 15C19.6731 13.9219 19.3684 12.9844 18.759 12.1875L18.3137 11.6953C17.4231 10.8047 16.3528 10.3438 15.1028 10.3125H12.1731Z" fill="#A9B8C6"/>
</g>
</g>
</svg>
