<svg width="31" height="30" viewBox="0 0 31 30" fill="none" xmlns="http://www.w3.org/2000/svg">
<g id="generic_stick_l_horizontal">
<path id="Subtract" fill-rule="evenodd" clip-rule="evenodd" d="M2.30762 12.2308C2.30762 12.4462 2.38454 12.6231 2.53839 12.7616L5.60762 15.7154C5.76146 15.8539 5.94608 15.9231 6.16146 15.9231L6.69223 15.7154C6.84608 15.5769 6.923 15.4 6.923 15.1846V9.27694C6.923 9.07694 6.84608 8.90002 6.69223 8.74617C6.55377 8.60771 6.37685 8.53848 6.16146 8.53848L5.95377 8.56156C5.81531 8.59233 5.69992 8.65386 5.60762 8.74617L2.53839 11.7C2.38454 11.8539 2.30762 12.0308 2.30762 12.2308ZM23.5153 20.6769C24.8692 19.6 25.7999 18.3846 26.3076 17.0308C25.9845 17.2154 25.623 17.3077 25.223 17.3077C24.6384 17.3077 24.1538 17.1154 23.7692 16.7308L23.5615 16.5231L22.4307 17.6077L22.4076 17.6308C20.5615 19.1077 18.323 19.8462 15.6922 19.8462C13.0615 19.8462 10.8153 19.1 8.95377 17.6077C8.523 17.2693 8.14608 16.9077 7.823 16.5231L7.61531 16.7308C7.23069 17.1154 6.74608 17.3077 6.16146 17.3077C5.76146 17.3077 5.39992 17.2154 5.07685 17.0308C5.58454 18.3846 6.50762 19.6 7.84608 20.6769C8.70762 21.3692 9.63069 21.9231 10.6153 22.3385V23.3077C10.6153 24.0769 11.1153 24.7308 12.1153 25.2692C13.1153 25.8077 14.3076 26.0769 15.6922 26.0769C17.0922 26.0769 18.2845 25.8077 19.2692 25.2692C20.2692 24.7308 20.7692 24.0769 20.7692 23.3077V22.3385C21.7538 21.9231 22.6692 21.3692 23.5153 20.6769ZM7.84608 6.53079L6.99223 7.3154C7.23839 7.40771 7.46146 7.55386 7.66146 7.75386C7.96916 8.06156 8.16916 8.40771 8.26146 8.79233L8.97685 8.1231H8.95377C10.8153 6.64617 13.0615 5.90771 15.6922 5.90771C18.323 5.90771 20.5615 6.64617 22.4076 8.1231L23.123 8.79233C23.2153 8.40771 23.4153 8.06156 23.723 7.75386C23.9076 7.55386 24.1307 7.40771 24.3922 7.3154L23.5153 6.53079C21.3769 4.79233 18.7692 3.9231 15.6922 3.9231C12.6307 3.9231 10.0153 4.79233 7.84608 6.53079ZM21.323 15.4154C22.3999 14.5231 22.9845 13.4692 23.0768 12.2539V12.2077C22.9845 10.9923 22.3922 9.9231 21.2999 9.00002H21.323C19.7692 7.76925 17.8922 7.15386 15.6922 7.15386C13.5384 7.15386 11.6845 7.75386 10.1307 8.95387L10.0845 9.00002C8.97685 9.9231 8.38454 11.0077 8.30762 12.2539V12.2769C8.39993 13.4769 8.96916 14.5231 10.0153 15.4154L10.0615 15.4385C11.6153 16.6846 13.4922 17.3077 15.6922 17.3077C17.8615 17.3077 19.7076 16.7 21.2307 15.4846L21.323 15.4154ZM25.7768 15.7154L28.8461 12.7616C28.9999 12.6231 29.0769 12.4462 29.0769 12.2308C29.0769 12.0308 28.9999 11.8539 28.8461 11.7L25.7768 8.74617C25.6692 8.65386 25.5538 8.59233 25.4307 8.56156L25.223 8.53848C25.0076 8.53848 24.8307 8.60771 24.6922 8.74617C24.5384 8.90002 24.4615 9.07694 24.4615 9.27694V15.1846C24.4615 15.4 24.5384 15.5769 24.6922 15.7154C24.8307 15.8539 25.0076 15.9231 25.223 15.9231L25.7768 15.7154ZM15.2307 9.46156V14.0769H17.9999V15.4616H13.8461V9.46156H15.2307Z" fill="#A9B8C6"/>
</g>
</svg>
