<svg width="30" height="30" viewBox="0 0 30 30" fill="none" xmlns="http://www.w3.org/2000/svg">
<g id="generic_stick_l_vertical">
<path id="Subtract" fill-rule="evenodd" clip-rule="evenodd" d="M11.7464 20.0077L14.7002 23.0769C14.8387 23.2307 15.0156 23.3077 15.231 23.3077C15.431 23.3077 15.6079 23.2307 15.7617 23.0769L18.7156 20.0077C18.8541 19.8538 18.9233 19.6692 18.9233 19.4538V19.2923L18.7156 18.923C18.5617 18.7692 18.3848 18.6923 18.1848 18.6923H12.2771C12.0617 18.6923 11.8848 18.7692 11.7464 18.923L11.5617 19.2923L11.5387 19.4538C11.5387 19.6692 11.6079 19.8538 11.7464 20.0077ZM19.7079 6.50765L19.5233 6.69227C20.3848 7.04612 21.1925 7.52304 21.9464 8.12304C23.5771 9.44612 24.4156 11.0307 24.4617 12.8769C24.431 14.723 23.6002 16.3 21.9694 17.6077L21.9464 17.6307L20.2156 18.7615L20.3079 19.4538C20.3079 20.023 20.1233 20.5153 19.7541 20.9307L19.7079 20.9769L16.7541 24.0461V24.0692C16.3079 24.5 15.8002 24.7077 15.231 24.6923C14.6156 24.6923 14.1079 24.4769 13.7079 24.0461L10.7541 20.9769L10.731 20.9307C10.3464 20.5153 10.1541 20.023 10.1541 19.4538C10.1541 19.1923 10.1925 18.9615 10.2694 18.7615L8.49251 17.6077C6.86174 16.3153 6.03098 14.7384 6.00021 12.8769C6.04636 11.0307 6.88482 9.44612 8.51559 8.12304H8.49251C9.24636 7.52304 10.0694 7.04612 10.9617 6.69227L10.731 6.4615C10.3464 6.07689 10.1541 5.59227 10.1541 5.00765V4.89227C9.16944 5.29227 8.24636 5.83842 7.38482 6.53073C5.23098 8.29996 4.15405 10.4153 4.15405 12.8769V13.1307V13.2V13.3846V13.6153V13.8692V14.123V14.3769C4.15405 16.8538 5.23098 18.9538 7.38482 20.6769C8.24636 21.3692 9.16944 21.923 10.1541 22.3384V23.3077C10.1541 24.0769 10.6541 24.7307 11.6541 25.2692C12.6541 25.8077 13.8464 26.0769 15.231 26.0769C16.631 26.0769 17.8233 25.8077 18.8079 25.2692C19.8079 24.7307 20.3079 24.0769 20.3079 23.3077V22.3384C21.2925 21.923 22.2079 21.3692 23.0541 20.6769C25.2233 18.9538 26.3079 16.8538 26.3079 14.3769V14.123V13.8692V13.6153V13.3846V13.2V13.1307V12.8769C26.3079 10.4153 25.2233 8.29996 23.0541 6.53073C22.2079 5.83842 21.2925 5.29227 20.3079 4.89227V5.00765C20.3079 5.62304 20.1079 6.12304 19.7079 6.50765ZM20.8617 8.99996C19.4002 7.84612 17.6464 7.23073 15.6002 7.15381H14.8617C12.8617 7.21535 11.131 7.81535 9.66944 8.95381L9.62328 8.99996C8.51559 9.92304 7.92328 11.0077 7.84636 12.2538V12.2769C7.93867 13.4769 8.5079 14.523 9.55405 15.4153L9.60021 15.4384C11.0617 16.6077 12.8156 17.2307 14.8617 17.3077H15.6002C17.6156 17.2307 19.3387 16.623 20.7694 15.4846L20.8617 15.4153C21.9387 14.523 22.5233 13.4692 22.6156 12.2538V12.2077C22.5233 10.9923 21.931 9.92304 20.8387 8.99996H20.8617ZM15.231 1.15381C15.0156 1.15381 14.8387 1.23073 14.7002 1.38458L11.7464 4.45381C11.6079 4.60765 11.5387 4.79227 11.5387 5.00765C11.5387 5.22304 11.6079 5.39996 11.7464 5.53842C11.8848 5.69227 12.0617 5.76919 12.2771 5.76919H18.1848C18.3848 5.76919 18.5617 5.69227 18.7156 5.53842C18.8541 5.39996 18.9233 5.22304 18.9233 5.00765C18.9233 4.79227 18.8541 4.60765 18.7156 4.45381L15.7617 1.38458C15.6079 1.23073 15.431 1.15381 15.231 1.15381ZM14.7694 9.4615V14.0769H17.5387V15.4615H13.3848V9.4615H14.7694Z" fill="#A9B8C6"/>
</g>
</svg>
