<svg width="17" height="22" viewBox="0 0 17 22" fill="none" xmlns="http://www.w3.org/2000/svg">
<g id="Group">
<path id="Vector" d="M3.64062 0.6875H13.4844C15.8281 0.765625 17 2.01563 17 4.4375V13.8125C17 15.875 16.2656 17.6406 14.7969 19.1094C13.3281 20.5781 11.5625 21.3125 9.5 21.3125H7.625C5.5625 21.3125 3.79688 20.5781 2.32813 19.1094C0.859375 17.6406 0.125 15.875 0.125 13.8125V4.4375C0.125 2.01563 1.29688 0.765625 3.64062 0.6875ZM1.53125 4.4375V9.125H5.75V6.3125C5.75 5.53125 6.02344 4.86719 6.57031 4.32031C6.88281 4.00781 7.23438 3.78906 7.625 3.66406V2.09375H3.875C2.3125 2.09375 1.53125 2.875 1.53125 4.4375ZM15.5938 13.8125V10.5312H11.3516C11.2578 11.1094 10.9922 11.6172 10.5547 12.0547C10.0078 12.6016 9.34375 12.875 8.5625 12.875C7.78125 12.875 7.11719 12.6016 6.57031 12.0547C6.13281 11.6172 5.875 11.1094 5.79688 10.5312H1.53125V13.8125C1.53125 15.4844 2.13281 16.9219 3.33594 18.125C4.52344 19.3125 5.95312 19.9062 7.625 19.9062H9.5C11.1719 19.9062 12.6094 19.3125 13.8125 18.125C15 16.9219 15.5938 15.4844 15.5938 13.8125ZM7.57812 5.32812C7.29688 5.59375 7.15625 5.92188 7.15625 6.3125V10.0625C7.15625 10.4531 7.29688 10.7891 7.57812 11.0703C7.84375 11.3359 8.17188 11.4688 8.5625 11.4688C8.95312 11.4688 9.28906 11.3359 9.57031 11.0703C9.83594 10.7891 9.96875 10.4531 9.96875 10.0625V6.3125C9.96875 5.92188 9.83594 5.59375 9.57031 5.32812C9.28906 5.04688 8.95312 4.90625 8.5625 4.90625C8.17188 4.90625 7.84375 5.04688 7.57812 5.32812Z" fill="#A9B8C6"/>
</g>
</svg>
