<svg width="30" height="30" viewBox="0 0 30 30" fill="none" xmlns="http://www.w3.org/2000/svg">
<g id="mouse_left_outline">
<g id="Group">
<path id="Vector" d="M10.0781 4.6875H19.9219C22.2656 4.76562 23.4375 6.01563 23.4375 8.4375V17.8125C23.4375 19.875 22.7031 21.6406 21.2344 23.1094C19.7656 24.5781 18 25.3125 15.9375 25.3125H14.0625C12 25.3125 10.2344 24.5781 8.76563 23.1094C7.29688 21.6406 6.5625 19.875 6.5625 17.8125V8.4375C6.5625 6.01563 7.73438 4.76562 10.0781 4.6875ZM22.0312 17.8125V14.5312H17.7891C17.6953 15.1094 17.4297 15.6172 16.9922 16.0547C16.4453 16.6016 15.7812 16.875 15 16.875C14.2188 16.875 13.5547 16.6016 13.0078 16.0547C12.5703 15.6172 12.3125 15.1094 12.2344 14.5312H7.96875V17.8125C7.96875 19.4844 8.57031 20.9219 9.77344 22.125C10.9609 23.3125 12.3906 23.9062 14.0625 23.9062H15.9375C17.6094 23.9062 19.0469 23.3125 20.25 22.125C21.4375 20.9219 22.0312 19.4844 22.0312 17.8125ZM14.0156 9.32812C13.7344 9.59375 13.5938 9.92188 13.5938 10.3125V14.0625C13.5938 14.4531 13.7344 14.7891 14.0156 15.0703C14.2812 15.3359 14.6094 15.4688 15 15.4688C15.3906 15.4688 15.7266 15.3359 16.0078 15.0703C16.2734 14.7891 16.4062 14.4531 16.4062 14.0625V10.3125C16.4062 9.92188 16.2734 9.59375 16.0078 9.32812C15.7266 9.04688 15.3906 8.90625 15 8.90625C14.6094 8.90625 14.2812 9.04688 14.0156 9.32812ZM19.6875 6.09375H15.9375V7.66406C16.3281 7.78906 16.6797 8.00781 16.9922 8.32031C17.5391 8.86719 17.8125 9.53125 17.8125 10.3125V13.125H22.0312V8.4375C22.0312 6.875 21.25 6.09375 19.6875 6.09375Z" fill="#A9B8C6"/>
</g>
</g>
</svg>
